<svg width="230" height="12" viewBox="0 0 230 12" fill="none" xmlns="http://www.w3.org/2000/svg">
<path d="M195.598 9.08471V11.6493H194.262V4.48988H197.379C198.715 4.48988 199.94 5.55845 199.828 6.84072C199.828 8.33671 198.715 9.08471 197.156 9.08471H195.598ZM197.268 5.55845H195.598V8.123H197.268C198.158 8.123 198.715 7.58872 198.715 6.84072C198.715 5.98587 198.27 5.55845 197.268 5.55845Z" fill="#67C2E5"/>
<path d="M218.535 7.8006L214.75 4.38119V11.6474H215.752V6.94575L217.533 8.54859L218.423 9.40345L219.314 8.54859L221.095 6.94575V11.6474H222.431V4.38119L218.535 7.8006Z" fill="#67C2E5"/>
<path d="M211.737 4.48843H210.401V11.6478H211.737V4.48843Z" fill="#67C2E5"/>
<path d="M225.436 4.48843V11.6478H230V10.5792H226.66V8.33526H229.666V7.2667H226.66V5.557H230V4.48843H225.436Z" fill="#67C2E5"/>
<path d="M203.501 8.76269V11.6478H202.276V4.48843H204.948C206.507 4.48843 207.509 5.23643 207.509 6.62556C207.509 7.80098 206.952 8.54898 205.728 8.65583L208.399 11.6478H206.952L204.392 8.76269H203.501ZM203.501 7.69413H204.948C205.839 7.69413 206.284 7.2667 206.284 6.62556C206.284 5.98442 205.839 5.557 204.948 5.557H203.501V7.69413Z" fill="#67C2E5"/>
<path d="M27.0541 3.09884C27.0541 5.02225 28.2787 5.77025 29.8373 6.30453L31.5073 6.94567C32.6205 7.37309 33.1772 7.69366 33.1772 8.54851C33.1772 9.61707 32.1752 10.0445 30.8393 10.0445C29.392 10.0445 28.1674 9.51022 27.0541 8.76222V10.7925C27.8334 11.3268 29.2807 11.7542 30.8393 11.7542C33.2885 11.7542 35.0698 10.5788 35.0698 8.54851C35.0698 6.83881 34.1791 5.8771 32.3979 5.23596L30.5053 4.59483C29.5033 4.27426 28.9467 3.95369 28.9467 3.09884C28.9467 2.13713 29.8373 1.7097 31.0619 1.7097C32.5092 1.7097 33.5112 2.24398 34.5131 2.88512V0.961708C33.6225 0.320569 32.3979 0 31.0619 0C28.8354 0 27.0541 1.06856 27.0541 3.09884Z" fill="#185F7D"/>
<path d="M87.4994 3.09884C87.4994 5.02225 88.724 5.77025 90.2826 6.30453L91.9525 6.94567C93.0658 7.37309 93.6225 7.69366 93.6225 8.54851C93.6225 9.61707 92.6205 10.0445 91.2846 10.0445C89.8373 10.0445 88.6127 9.51022 87.4994 8.76222V10.7925C88.2787 11.3268 89.726 11.7542 91.2846 11.7542C93.7338 11.7542 95.5151 10.5788 95.5151 8.54851C95.5151 6.94567 94.6244 5.8771 92.8432 5.23596L90.9506 4.59483C89.9486 4.27426 89.392 3.95369 89.392 3.09884C89.392 2.13713 90.2826 1.7097 91.5072 1.7097C92.9545 1.7097 93.9565 2.24398 94.9584 2.88512V0.961708C94.0678 0.320569 92.8432 0 91.5072 0C89.392 0 87.4994 1.06856 87.4994 3.09884Z" fill="#185F7D"/>
<path d="M75.3654 3.09884C75.3654 5.02225 76.59 5.77025 78.1486 6.30453L79.8185 6.94567C80.9318 7.37309 81.4885 7.69366 81.4885 8.54851C81.4885 9.61707 80.4865 10.0445 79.1506 10.0445C77.7033 10.0445 76.4787 9.51022 75.3654 8.76222V10.7925C76.1447 11.3268 77.592 11.7542 79.1506 11.7542C81.7111 11.7542 83.4924 10.6856 83.4924 8.54851C83.4924 6.94567 82.6018 5.8771 80.8205 5.23596L78.9279 4.59483C77.926 4.27426 77.3693 3.95369 77.3693 3.09884C77.3693 2.13713 78.2599 1.7097 79.4846 1.7097C80.9318 1.7097 81.9338 2.24398 82.9357 2.88512V0.961708C81.9338 0.320569 80.7092 0 79.3732 0C77.258 0 75.3654 1.06856 75.3654 3.09884Z" fill="#185F7D"/>
<path d="M63.5707 0.213882V11.6475H70.8071V9.93782H65.5747V6.3047H70.2505V4.70185H65.5747V1.92358H70.8071V0.213882H63.5707Z" fill="#185F7D"/>
<path d="M2.00391 6.62527H4.56447C5.90042 6.62527 6.67972 7.26641 6.67972 8.33497C6.67972 9.40353 5.90042 10.0447 4.56447 10.0447H2.00391V6.62527ZM2.00391 1.81673H4.23049C5.56643 1.81673 6.34573 2.24415 6.34573 3.31272C6.34573 4.38128 5.56643 4.91556 4.23049 4.91556H2.00391V1.81673ZM0 0.213882V11.6475H4.56447C7.0137 11.6475 8.5723 10.4721 8.5723 8.33497C8.5723 7.15955 7.793 6.09099 6.67972 5.77042C7.57034 5.44985 8.23832 4.595 8.23832 3.31272C8.23832 1.28245 6.67972 0.213882 4.23049 0.213882H0Z" fill="#185F7D"/>
<path d="M40.4067 11.6475H42.4107V0.213882H40.4067V11.6475Z" fill="#185F7D"/>
<path d="M20.3734 0.213882V6.83898C20.3734 9.08296 19.3714 10.0447 17.5902 10.0447C15.8089 10.0447 14.807 8.97611 14.807 6.83898V0.213882H12.803V7.05269C12.803 10.1515 14.6956 11.7544 17.5902 11.7544C20.4847 11.7544 22.3773 10.1515 22.3773 7.05269V0.213882H20.3734Z" fill="#185F7D"/>
<path d="M56.3345 0.213713V7.47995L48.0962 0V11.6473H50.1001V4.1674L58.2271 11.7542V0.213713H56.3345Z" fill="#185F7D"/>
<path d="M107.541 11.6475H105.537V0.213882H107.541V11.6475Z" fill="#185F7D"/>
<path d="M123.797 11.7542L115.559 4.1674V11.6473H113.666V0L121.905 7.47995V0.213713H123.797V11.7542Z" fill="#185F7D"/>
<path d="M129.033 8.76261C130.146 9.61746 131.37 10.0449 132.818 10.0449C134.154 10.0449 135.156 9.61746 135.156 8.54889C135.156 7.69404 134.599 7.26662 133.486 6.94605L131.704 6.41177C130.146 5.87748 128.921 5.02263 128.921 3.20607C128.921 1.1758 130.702 0.107239 132.929 0.107239C134.265 0.107239 135.49 0.427808 136.492 1.06895V3.09922C135.49 2.35122 134.376 1.9238 133.04 1.9238C131.816 1.9238 130.925 2.35122 130.925 3.31293C130.925 4.16778 131.482 4.48835 132.484 4.80892L134.376 5.45006C136.269 6.0912 137.048 7.15976 137.048 8.76261C137.048 10.8997 135.156 11.9683 132.818 11.9683C131.259 11.9683 129.923 11.5409 129.033 11.0066V8.76261Z" fill="#185F7D"/>
<path d="M143.613 11.6475H141.609V0.213882H143.613V11.6475Z" fill="#185F7D"/>
<path d="M149.844 0.213882H154.408C157.971 0.213882 160.197 2.45787 160.197 5.87727C160.197 9.40353 157.971 11.5407 154.408 11.5407H149.844V0.213882ZM154.297 9.93781C156.746 9.93781 158.082 8.44182 158.082 5.98413C158.082 3.52643 156.746 2.03044 154.297 2.03044H151.848V10.0447H154.297V9.93781Z" fill="#185F7D"/>
<path d="M172 0.213882V1.92358H166.768V4.70185H171.444V6.41155H166.768V9.93782H172V11.6475H164.764V0.213882H172Z" fill="#185F7D"/>
<path d="M178.792 6.94584V11.5407H176.788V0.213882H181.13C183.579 0.213882 185.138 1.3893 185.138 3.63329C185.138 5.5567 184.247 6.62527 182.354 6.94584L186.585 11.6475H184.247L180.128 7.05269H178.792V6.94584ZM178.792 5.34299H181.018C182.354 5.34299 183.134 4.70185 183.134 3.63329C183.134 2.56472 182.354 1.92358 181.018 1.92358H178.792V5.34299Z" fill="#185F7D"/>
</svg>
